inDegrees=no
num_controls=7
num_derivatives=13
num_iterations=156
num_multipliers=7
num_parameters=0
num_slacks=7
num_states=26
objective=5.300351
objective_accelerations=0.713299
objective_balance=0.021084
objective_effort=0.175763
objective_height=4.315837
objective_ligament=0.074368
solver_duration=1713.603383
status=Solve_Succeeded
success=true
DataType=double
version=3
OpenSimVersion=4.4-2022-07-23-0e9fedc
endheader
time	/jointset/ground_pelvis/pelvis_tilt/value	/jointset/ground_pelvis/pelvis_tx/value	/jointset/ground_pelvis/pelvis_ty/value	/jointset/hip_l/hip_flexion_l/value	/jointset/hip_l/hip_adduction_l/value	/jointset/hip_l/hip_rotation_l/value	/jointset/back/lumbar_extension/value	/jointset/patellofemoral_l/patellar_flexion_l/value	/jointset/knee_l/knee_flexion_l/value	/jointset/knee_l/knee_adduction_l/value	/jointset/knee_l/knee_rotation_l/value	/jointset/ankle_l/ankle_angle_l/value	/jointset/subtalar_l/subtalar_angle_l/value	/jointset/ground_pelvis/pelvis_tilt/speed	/jointset/ground_pelvis/pelvis_tx/speed	/jointset/ground_pelvis/pelvis_ty/speed	/jointset/hip_l/hip_flexion_l/speed	/jointset/hip_l/hip_adduction_l/speed	/jointset/hip_l/hip_rotation_l/speed	/jointset/back/lumbar_extension/speed	/jointset/patellofemoral_l/patellar_flexion_l/speed	/jointset/knee_l/knee_flexion_l/speed	/jointset/knee_l/knee_adduction_l/speed	/jointset/knee_l/knee_rotation_l/speed	/jointset/ankle_l/ankle_angle_l/speed	/jointset/subtalar_l/subtalar_angle_l/speed	/forceset/tau_hip_flexion_l	/forceset/tau_hip_adduction_l	/forceset/tau_hip_rotation_l	/forceset/tau_knee_flexion_l	/forceset/tau_ankle_angle_l	/forceset/tau_subtalar_angle_l	/forceset/tau_lumbar_extension	lambda_cid13_p0	lambda_cid13_p1	lambda_cid13_p2	lambda_cid13_p3	lambda_cid13_p4	lambda_cid13_p5	lambda_cid14_p0	/jointset/ground_pelvis/pelvis_tilt/accel	/jointset/ground_pelvis/pelvis_tx/accel	/jointset/ground_pelvis/pelvis_ty/accel	/jointset/hip_l/hip_flexion_l/accel	/jointset/hip_l/hip_adduction_l/accel	/jointset/hip_l/hip_rotation_l/accel	/jointset/back/lumbar_extension/accel	/jointset/patellofemoral_l/patellar_flexion_l/accel	/jointset/knee_l/knee_flexion_l/accel	/jointset/knee_l/knee_adduction_l/accel	/jointset/knee_l/knee_rotation_l/accel	/jointset/ankle_l/ankle_angle_l/accel	/jointset/subtalar_l/subtalar_angle_l/accel	gamma_cid13_p0	gamma_cid13_p1	gamma_cid13_p2	gamma_cid13_p3	gamma_cid13_p4	gamma_cid13_p5	gamma_cid14_p0
1.5	-0.3530115495022649	0.05602481358263786	0.7921307635778373	1.005756647409451	-0.3605311515302005	-0.05266349839745929	-0.3278567059144714	0.8100224058005261	0.810022405800494	-0.04088550791137767	-0.1737635679737846	0.2747250021750946	0.1518101241644429	0.5008677954802101	0.265915332855582	0.4873100483576943	-2.306687715356399	-0.009388471341708664	-0.6096131351237377	0.6151450242348642	-2.18405518124963	-2.184055181249641	-0.3126783867244198	0.01847286626486709	-0.5538021442354717	-0.2279187464505204	-0.1337379374536511	0.02984657951696068	0.001496691369582946	-0.1260414176633145	-0.04478621154465802	0.01947426452959218	0.126605937821918	-36.93080365380592	-4.484717320094624	3.281993631914194	-3.047484953589519	-429.4108176332692	-64.42933551035476	-10.63767055897996	0.5388053589931915	0.5745954883904834	-0.7583900817389492	-1.271317948229528	0.2964981458046627	-0.5737122166726139	1.567063304552841	-1.137617884656696	-1.137617884656698	-0.1787460262943082	0.2698933470249956	-0.4981112374453053	0.4370051880895902	6.013574957680549e-07	6.004189799178799e-07	-6.794536969750565e-06	-2.632922961942108e-07	1.442584734100341e-06	2.276368125822764e-06	8.599619205132351e-07
1.51	-0.3479760519988516	0.05871258720521798	0.7969650475858985	0.9826271766176625	-0.3606131684380379	-0.05878218496957094	-0.3216291652212974	0.7881265733326788	0.7881265733326552	-0.04403079456971812	-0.1735650107799638	0.2691620045068253	0.1495486903262263	0.5061176406444121	0.2716177125558831	0.4794413869084375	-2.318901345568319	-0.007033658480402554	-0.6139078123584032	0.6302473798003965	-2.194828218182462	-2.194828218182434	-0.3165056251910208	0.02136546658490684	-0.5586935383445696	-0.2243614313041443	-0.1283706643070353	0.02675188686198632	0.002548066822415498	-0.1249076266300831	-0.04230963317873467	0.01925845961876454	0.1223244126606664	-35.97415783570428	-4.660756486793874	3.426863573189054	-3.538613778490383	-426.236348256592	-65.35958638183006	-11.5446060435378	0.5010206046249994	0.5647958641745792	-0.8166239894367386	-1.150537652368579	0.2029251644832777	-0.3239724352980411	1.464461492540221	-1.004863831466217	-1.004863831460482	-0.503634617536094	0.3168696165661315	-0.4689830855981867	0.3165073593613207	5.851452581678033e-07	1.519184326635391e-06	-6.412801599378088e-06	-1.274070679226523e-07	1.431437451491934e-06	2.742407347627215e-06	8.908560951997226e-07
1.52	-0.3428914667418911	0.06145673195546576	0.8017175410168834	0.9593847391048171	-0.3606720467556234	-0.06493714370571917	-0.3152540730104696	0.7661314670487399	0.7661314670487037	-0.04721813798488953	-0.1733339423345131	0.2635532269798737	0.1473231121757636	0.5106853461882578	0.2771895583891151	0.4709519329425065	-2.329281059568067	-0.004760753291509487	-0.6168675679304483	0.6446553277654073	-2.203909944470084	-2.203909944470016	-0.3210897380853452	0.02497511658785069	-0.5629581159719084	-0.2207476088997794	-0.1230033911604444	0.02365719420699844	0.0035994422751319	-0.1237738355968478	-0.03983305481280765	0.01904265470792327	0.1180428874993944	-35.01265786793117	-4.836093549826094	3.56985425254005	-4.073958870573087	-422.9707206389083	-66.38773330973756	-12.44874909557053	0.4023774349219095	0.5484887149767275	-0.8825485850737675	-0.9045347057952401	0.2801166113220331	-0.3067278841485887	1.428181784448572	-0.7993557556147931	-0.7993557556147776	-0.3301209118390014	0.413303283605802	-0.372747941093394	0.448306639687346	4.090639218474714e-07	3.046471647216021e-06	-4.314799939667152e-06	1.762700825717718e-07	1.059555661035833e-06	2.817138926289472e-06	7.777564968044854e-07
1.53	-0.3377645906075564	0.06425521185330596	0.8063819575667007	0.9360494360757208	-0.3607063025261689	-0.07112676415730214	-0.3087376276234872	0.7440552729298555	0.7440552729298131	-0.05044306617230082	-0.1730694415177904	0.2579051392059646	0.1451372110410739	0.5146413975138714	0.2824160261777989	0.4618294923459658	-2.33741914316992	-0.002084536367357341	-0.6208795503370953	0.6585221764451097	-2.210986640645066	-2.210986640645053	-0.3239476302694964	0.02800174121597829	-0.5666079591278134	-0.2164207771785068	-0.1198331777783812	0.0253311452577809	0.004577171918510882	-0.1185127748951611	-0.04280234779896273	0.0162935740801536	0.1150915371644159	-36.0481344136342	-3.557294676688827	3.476126308835504	-2.614790671452086	-419.8847812736416	-63.93300001166245	-13.34937387049387	0.384959451284774	0.4963498093526698	-0.9423944752392099	-0.7143830528652577	0.261332432153102	-0.421614537424056	1.349200431769978	-0.6105645912876211	-0.610564591295876	-0.2703373950805533	0.2592507282513523	-0.3531363819366645	0.4254390782488436	6.312166813705566e-08	5.22031356502621e-06	-3.932653475341245e-07	6.582261504279889e-07	3.04393455991562e-07	2.47610613411315e-06	5.116635145099169e-07
1.54	-0.3325996058659778	0.06710328122874036	0.8109520891748936	0.9126435646375106	-0.3607138044876335	-0.07735114065665438	-0.3020858609452987	0.7219185642406587	0.7219185642405964	-0.05369791608624101	-0.1727722927196115	0.2522221462246771	0.1429946917515773	0.5183070676356236	0.2871074539079617	0.4520949446176695	-2.343394741391185	0.0005900085244456105	-0.623818777483793	0.6717195860063753	-2.216012858533952	-2.216012858533994	-0.3270740833887431	0.03150471287750824	-0.5699391574476171	-0.2120712398611678	-0.1166629643963426	0.02700509630854988	0.005554901561833145	-0.1132517141934696	-0.04577164078511381	0.01354449345236908	0.1121401868294172	-37.07701676439192	-2.289145715931424	3.394942475481884	-1.184503171221702	-416.7793167492762	-61.49870982237918	-14.24648606948062	0.3443011941496561	0.4414807032725703	-1.004970011424882	-0.4720376296775671	0.2797822048521719	-0.09217683215875938	1.294293960761218	-0.3892600983958187	-0.3892600983958192	-0.3838330988581249	0.5085726902862587	-0.3090189738731135	0.4528477589006528	-7.687656414278367e-08	6.357154314356492e-06	1.188502993377225e-06	8.823994141053983e-07	1.395830847241839e-08	2.465910226667265e-06	4.264503186612626e-07
1.55	-0.3273997112417936	0.06999611214657153	0.8154220615935154	0.8891877538508838	-0.3606952010610069	-0.08359902613935856	-0.2953061561298309	0.6997412188807649	0.6997412188807224	-0.05698706763398862	-0.1724378133799311	0.2465078523200496	0.1408951401948648	0.5215483046853905	0.2914160012137694	0.4418153325539255	-2.347421198193065	0.003151360134833691	-0.6257386028083279	0.6840901861099316	-2.219142714826721	-2.21914271482671	-0.3306761782870437	0.03538939331895099	-0.5728020625242329	-0.2077811939788483	-0.1115731446425895	0.02387678908602704	0.006403076155950668	-0.112070449042454	-0.04394695187623923	0.01319954124734516	0.1080216012411872	-36.37330446712654	-2.373400398987286	3.534995162174203	-1.45083973936675	-414.1327482740548	-62.42258056699384	-15.14080441928233	0.295527755604136	0.4192862970015616	-1.052008769371486	-0.3159921651952234	0.2468302131575929	-0.2384069358216053	1.188764388509789	-0.2279472184398311	-0.2279472184319956	-0.3354532656953665	0.3281288665102575	-0.2570538284182489	0.4248420303512485	2.040853261694132e-08	6.299189369568687e-06	7.445369701157126e-08	8.095620555768066e-07	2.589695533191527e-07	2.836895947280339e-06	5.496420941524541e-07
1.56	-0.3221711056880631	0.07293077744801382	0.8197867274983953	0.8657020700042918	-0.3606504804034709	-0.08986541418595027	-0.2884066810426547	0.677541955193198	0.6775419551931754	-0.06030965124680814	-0.1720645446067445	0.2407685038538839	0.1388400409024663	0.5240492535437073	0.2954743306301871	0.431033641869331	-2.349369353385036	0.005813454706233351	-0.6275192902616906	0.6956736403477729	-2.220396524068384	-2.22039652406832	-0.333760496400516	0.03926259957787171	-0.5749500697553415	-0.2031807869983806	-0.1064833248888252	0.02074848186352404	0.007251250750041771	-0.1108891838914252	-0.04212226296735251	0.01285458904235171	0.1039030156529625	-35.66769374994471	-2.455819469131178	3.672278875431324	-1.729571814992052	-411.4425300852311	-63.37760236923894	-16.02825056191889	0.1962435558596853	0.3914371253945814	-1.105385735595004	-0.05637730769567129	0.2999307970544718	-0.06434925792432132	1.136864787618225	-0.01405068817463995	-0.01405068817463943	-0.2802777418925042	0.5062778537818391	-0.1660394047716469	0.5149199785303097	6.30401346418081e-08	6.147436083769828e-06	-5.142425715250872e-07	7.595346187876329e-07	3.675716136607661e-07	2.957232704719979e-06	6.046277437050059e-07
1.57	-0.3169210766069578	0.07590441374047392	0.824041091623626	0.8422079360367337	-0.3605784342665505	-0.0961481359083407	-0.2813950804601703	0.6553400711944696	0.655340071194531	-0.06366055681710572	-0.1716520176323833	0.235011102193355	0.1368326669451235	0.5258696022790695	0.2991755206243779	0.4197640661544393	-2.349088249658137	0.00860909879050548	-0.6289590885988016	0.7065044986778062	-2.219633809873097	-2.219633809873062	-0.3363622436061064	0.04324827573983817	-0.5764372914632115	-0.1982592205167502	-0.1025046004528935	0.02098202320187403	0.008006741133481897	-0.1077258093427745	-0.04263763037670558	0.01038978439607287	0.1004724211039448	-35.90953744777858	-1.398154667153585	3.566646611534221	-1.048123848925538	-409.0361330090581	-61.74106889623972	-16.8987352564138	0.161906830167893	0.3479939772884674	-1.148957039309213	0.1257503335261604	0.2708073985372492	-0.1734528021728922	1.034899734970075	0.1732909581181905	0.1732909581136687	-0.2405000826173159	0.3455147127210008	-0.1259094462512453	0.4851401717291633	3.735486824810279e-08	5.878447371707153e-06	-4.462475552755072e-07	7.380195841727312e-07	3.056621933709801e-07	2.764258258192828e-06	5.74355735834259e-07
1.58	-0.3116554487789356	0.07891276874104707	0.8281805172817335	0.8187276923305732	-0.3604781464519012	-0.1024431871502179	-0.27427943061853	0.6331561860346788	0.6331561860347537	-0.06703555523410164	-0.1711994734532775	0.2292416591372562	0.1348753816903471	0.52716900292616	0.3024180722527983	0.4080459484446816	-2.34659130110551	0.01146179025172311	-0.6299851941586431	0.7164834921788144	-2.216796756288293	-2.216796756288288	-0.3385790657206949	0.04726604051447808	-0.5773583488693401	-0.1931630464851291	-0.09852587601699303	0.02121556454021231	0.008762231516487095	-0.1045624347941085	-0.0431529977860526	0.007924979749787774	0.0970418265548999	-36.15002720798554	-0.3469094782954726	3.469100453433974	-0.3830410863566405	-406.6678428936752	-60.15793605447838	-17.74657931489015	0.09205393820537562	0.2997094522405145	-1.195094134568217	0.3867916574501034	0.3113402724435765	0.01838929752957952	0.9664918218132351	0.4008171897287296	0.4008171897287398	-0.2032927236921062	0.5126955763165177	-0.05280654442335608	0.549841488528415	6.944470689196293e-08	5.723744618693732e-06	-9.796305913689943e-07	7.044812650880115e-07	3.999279184926583e-07	2.940100054981993e-06	6.201655803923262e-07
1.59	-0.3063793967588396	0.08195140862577222	0.8322006835128917	0.7952828012260176	-0.3603500807621899	-0.108744093814792	-0.2670687119674383	0.6110105729191043	0.6110105729191486	-0.07043418173007841	-0.1707056676588491	0.2234656639610268	0.1329685544161917	0.5279241465039606	0.3052434249843412	0.39592571074834	-2.342007933521992	0.01416592545144349	-0.6301409347252015	0.7255030457665256	-2.211981922689898	-2.21198192268996	-0.3410621899888623	0.05150112420213637	-0.5777266001476954	-0.1881585177805094	-0.09391977934869111	0.0186123834672401	0.009439765411211196	-0.1028561729015806	-0.04233668127959839	0.007058328045915069	0.09323212658941821	-35.85141375889351	-0.1322442826415712	3.559878788498974	-0.2527935240709051	-404.652888222128	-60.58144522242958	-18.56589294381947	0.04969598288470958	0.2641012102032268	-1.229548915149937	0.5510062081862411	0.2519796581229142	-0.02350056988406141	0.8461082862780916	0.5732364521985323	0.573236452188522	-0.2575098728623272	0.3792965457333363	-0.01152142612469703	0.4818139644811181	1.79943616658229e-07	5.724144238675719e-06	-2.329169555642313e-06	6.546256313656827e-07	7.061456266727407e-07	3.616478181986128e-06	7.692293675323497e-07
